<svg width="126" height="79" viewBox="0 0 126 79" fill="none" xmlns="http://www.w3.org/2000/svg">
<path d="M82.8763 0L120.701 41.1127C121.291 41.9139 120.541 43.1703 119.601 43.2213L104.672 40.2423C103.604 40.3515 103.371 41.0617 103.564 42.0595L125.729 73.3092C126.577 74.6093 125.288 76.0078 123.879 75.3413L83.2259 57.8323C82.217 57.7085 81.5396 58.2985 81.7326 59.3255L90.2555 76.6387C90.7764 77.7094 89.8731 78.7037 88.7622 78.6418L55.3625 58.0326C54.4156 57.8578 53.5013 58.9103 53.9457 59.828L59.0849 69.213C58.9465 70.393 58.3492 70.9793 57.129 70.6479L0.211252 37.3506L0 36.4693L0.00728455 0H82.8763ZM14.926 12.0945C15.2502 9.67635 14.6856 6.58808 14.926 4.09342L14.6529 3.82028H6.00975L6.55609 7.27638H10.7411C10.945 8.60565 11.5132 12.2402 9.55368 12.3786C7.79446 12.5024 7.96565 11.1367 8.00936 9.82202C6.88025 10.2845 3.78432 9.99683 3.83531 11.5191C4.02835 17.2659 14.2121 17.3898 14.9224 12.0945H14.926ZM29.2984 15.638L26.483 3.99509C26.3409 3.81664 26.1442 3.83121 25.9403 3.80936C25.2409 3.72924 19.5954 3.75473 19.2895 3.90769L18.9726 4.31921L16.3793 15.638H20.2911L21.0414 14.2068L24.6436 14.174L25.2045 15.638H29.2984ZM40.6696 3.82028H31.0285L30.7554 4.09342V15.6417H34.7582V11.3698C34.7582 11.1841 35.1661 11.0821 35.3774 11.0967C37.0091 11.2023 38.7319 14.6912 40.5349 15.4122C40.9319 15.5725 43.1245 16.0532 43.1245 15.5506V11.3698C42.4398 10.8017 41.256 11.2205 40.3964 11.0967C41.1468 10.4739 42.2067 10.4812 42.8258 9.62901C44.352 7.52767 43.3722 4.27187 40.666 3.82757L40.6696 3.82028ZM44.9456 15.638H51.4034C51.6984 15.638 53.2937 15.1427 53.658 14.9825C57.883 13.1215 57.9486 5.88156 53.5378 4.4139C53.1189 4.27551 51.1958 3.82028 50.8571 3.82028H44.9456V15.6417V15.638ZM68.777 3.82028H57.9522L57.679 4.09342V6.73011H60.8624L61.1355 7.00325V12.7318H57.679V15.6417H68.777V12.7318H65.3205V6.9122C65.499 6.97047 65.7139 6.73011 65.7758 6.73011H68.686L68.9154 6.46425L68.777 3.82028ZM75.0527 3.82028H70.2303V15.6417H74.5063C74.9434 14.8295 74.8378 13.2636 74.7868 12.2693C74.703 10.6232 74.1676 9.03903 74.1421 7.45483L77.9628 15.638H82.7852V3.82028H78.4181C78.4363 5.96168 78.3125 8.11036 78.6439 10.2336C78.6767 10.4411 79.4161 12.364 79.0555 12.3713L75.0527 3.82392V3.82028ZM24.8913 18.2347C20.251 18.7117 18.8451 23.0892 20.0726 27.1353C21.5805 32.1064 30.8282 31.4982 31.6186 26.0464C32.3361 21.0753 30.2381 17.6847 24.8949 18.2347H24.8913ZM76.6917 18.3658C75.5808 18.129 73.716 18.5406 72.5067 18.3658L72.2336 18.6389V30.1872H76.6006C76.6334 27.332 76.7718 24.5241 75.6937 21.8219C76.1344 22.0986 76.353 22.7542 76.5751 23.213C77.6897 25.511 78.542 27.9474 79.784 30.1872H84.6063V19.0031C84.6063 18.9594 84.7885 18.8574 84.7083 18.7263C84.6756 18.6644 84.1948 18.3658 84.1511 18.3658H80.5124C80.3303 18.4787 80.2757 18.6171 80.2393 18.821C80.0936 19.6113 80.1773 21.9238 80.2393 22.8197C80.3485 24.291 80.9204 25.6494 81.0551 27.0989L77.3655 18.963C77.2672 18.7409 76.8957 18.4131 76.688 18.3694L76.6917 18.3658ZM10.1947 18.5479H4.1012L3.82803 18.821V30.0961L4.1012 30.3692H8.19511C7.99479 29.1456 8.39908 27.7835 8.3918 26.6437C8.38451 25.5038 7.93287 23.9378 7.83089 22.736C8.3918 22.6413 8.11498 22.8926 8.19511 23.1803C8.86165 25.5547 9.46262 27.962 10.0199 30.362L12.2016 30.2855L14.4671 22.004C14.8459 22.004 14.0337 25.7077 14.0045 26.0901C13.9026 27.5177 14.0847 28.9562 14.1939 30.3692H18.3789V18.5479H12.2854L11.1927 23.0965L10.1911 18.5479H10.1947ZM33.2102 18.5479C32.7805 18.5479 33.1265 20.7621 33.1265 20.9952C33.152 23.9341 33.1811 26.8986 32.9953 29.8266L33.2066 30.1872H39.9375C40.4766 30.1872 42.356 29.2913 42.8477 28.9125C45.9546 26.5453 45.7032 20.7075 41.9153 19.116C41.6676 19.014 40.2544 18.5479 40.1196 18.5479H33.2066H33.2102ZM56.9506 18.5479H46.2168V30.1872H56.8595C57.3112 29.8375 57.2165 27.3538 56.9615 27.1754C56.0473 26.8731 50.3653 27.4339 50.2124 26.793C50.2233 26.3232 50.0776 25.7623 50.4928 25.4601H56.4042V23.2786H50.4928C50.0703 22.9144 50.0703 22.004 50.4928 21.6434H56.8595C56.9469 21.6434 57.1618 21.3448 57.14 21.1918L56.9506 18.5515V18.5479ZM68.5039 18.5479H58.4075V30.3692H62.1372L62.4103 30.0961V25.8242C65.0328 25.6458 65.7977 28.9198 67.8555 29.9286C68.7916 30.3838 69.7568 30.4202 70.7766 30.3729V25.8279H66.4096C66.2712 25.1724 67.1744 25.664 67.7208 25.6094C72.2773 25.1432 72.0514 19.1451 68.5002 18.5551L68.5039 18.5479ZM96.7934 18.5479H86.1507L85.8775 18.821V29.914L86.1507 30.1872H96.7934V27.0952H90.3356C89.9131 26.7311 89.9131 25.8206 90.3356 25.4601H95.9739C96.3454 25.1796 96.2944 24.5387 96.2543 24.0871C96.2398 23.9196 96.2689 23.7448 96.2179 23.5809L95.9739 23.2786H90.3356C89.9131 22.9144 89.9131 22.004 90.3356 21.6434H96.5202L96.7934 21.3703V18.5479Z" fill="black"/>
<path d="M3.18645 2.5392H82.4494V35.5488H3.18645V2.5392Z" fill="black"/>
<path d="M77.8688 15.7331H97.3858V35.5488H77.8688V15.7331Z" fill="black"/>
<path d="M64.7247 2.5392H84.2417V22.3549H64.7247V2.5392Z" fill="black"/>
<path d="M5.27783 8.22817V6.0742H23.2983V10.2456L19.8247 11.3833L23.2983 12.5209V16.6923H7.53798V8.22817H5.27783ZM11.497 14.5384H19.3393V13.7648L16.351 12.4603H11.497V14.5384ZM11.497 10.3063H16.351L19.3393 9.00178V8.22817H11.497V10.3063Z" fill="#FF48BA"/>
<path d="M24.5167 8.22817V6.0742H29.4769L33.6483 10.4883L37.4253 6.0742H42.0821L35.6202 13.6282V16.6923H31.6612V13.4311L26.7465 8.22817H24.5167Z" fill="#FF48BA"/>
<path d="M41.7777 8.22817V6.0742H59.8133V9.98775L55.8543 9.44167V8.22817H48.012V10.3063H54.4588V12.4603H48.012V14.5384H55.8543V13.3249L59.8133 12.7788V16.6923H44.053V8.22817H41.7777Z" fill="#FF48BA"/>
<path d="M67.1336 16.6923V11.5501L79.0714 9.6692V8.22817H71.0926V9.15346L67.1336 9.76021V6.0742H83.0304V11.3681L71.0926 13.249V14.5384H79.0714V13.7799L83.0304 13.2035V16.6923H67.1336Z" fill="#FF48BA"/>
<path d="M5.27783 21.918V19.764H23.2983V23.9354L19.8247 25.0731L23.2983 26.2107V30.3822H7.53798V21.918H5.27783ZM11.497 28.2282H19.3393V27.4546L16.351 26.1501H11.497V28.2282ZM11.497 23.9961H16.351L19.3393 22.6916V21.918H11.497V23.9961Z" fill="#FF48BA"/>
<path d="M26.1853 30.3822V19.764H41.9456V30.3822H26.1853ZM30.1443 28.2282H37.9866V21.918H30.1443V28.2282Z" fill="#FF48BA"/>
<path d="M44.9833 30.3822V19.764H60.7436V30.3822H44.9833ZM48.9423 28.2282H56.7846V21.918H48.9423V28.2282Z" fill="#FF48BA"/>
<path d="M63.7813 30.3822V19.3393L73.4134 22.1759L83.0304 19.3393V30.3822H77.782V28.2282H79.0714V23.0405L75.3854 24.0871V30.3822H71.4263V24.0871L67.7403 23.0405V28.2282H69.0297V30.3822H63.7813Z" fill="#FF48BA"/>
</svg>
